<svg xmlns="http://www.w3.org/2000/svg" xmlns:xlink="http://www.w3.org/1999/xlink" width="500" zoomAndPan="magnify" viewBox="0 0 375 374.999991" height="500" preserveAspectRatio="xMidYMid meet" version="1.0"><defs><filter x="0%" y="0%" width="100%" height="100%" id="8d1230b95c"><feColorMatrix values="0 0 0 0 1 0 0 0 0 1 0 0 0 0 1 0 0 0 1 0" color-interpolation-filters="sRGB"/></filter><g/><clipPath id="85b5da5b60"><path d="M 0 0 L 316.210938 0 L 316.210938 325.839844 L 0 325.839844 Z M 0 0 " clip-rule="nonzero"/></clipPath><clipPath id="f0441dbea7"><path d="M 0 0 L 316.210938 0 L 316.210938 325.839844 L 0 325.839844 Z M 0 0 " clip-rule="nonzero"/></clipPath><clipPath id="b6f97dc9a0"><path d="M 0 1.226562 L 300.550781 1.226562 L 300.550781 324.441406 L 0 324.441406 Z M 0 1.226562 " clip-rule="nonzero"/></clipPath><linearGradient x1="-320.841798" gradientTransform="matrix(0.279559, 0, 0, 0.279605, 89.694227, 120.754226)" y1="150.5" x2="754.25107" gradientUnits="userSpaceOnUse" y2="150.5" id="5c31cdd947"><stop stop-opacity="1" stop-color="rgb(18.818665%, 70.979309%, 65.098572%)" offset="0"/><stop stop-opacity="1" stop-color="rgb(18.818665%, 70.979309%, 65.098572%)" offset="0.25"/><stop stop-opacity="1" stop-color="rgb(18.818665%, 70.979309%, 65.098572%)" offset="0.3125"/><stop stop-opacity="1" stop-color="rgb(18.818665%, 70.979309%, 65.098572%)" offset="0.34375"/><stop stop-opacity="1" stop-color="rgb(18.875122%, 70.977783%, 65.104675%)" offset="0.351562"/><stop stop-opacity="1" stop-color="rgb(19.241333%, 70.970154%, 65.141296%)" offset="0.355469"/><stop stop-opacity="1" stop-color="rgb(19.551086%, 70.96405%, 65.171814%)" offset="0.359375"/><stop stop-opacity="1" stop-color="rgb(19.86084%, 70.957947%, 65.202332%)" offset="0.363281"/><stop stop-opacity="1" stop-color="rgb(20.170593%, 70.951843%, 65.234375%)" offset="0.367188"/><stop stop-opacity="1" stop-color="rgb(20.478821%, 70.94574%, 65.264893%)" offset="0.371094"/><stop stop-opacity="1" stop-color="rgb(20.788574%, 70.939636%, 65.29541%)" offset="0.375"/><stop stop-opacity="1" stop-color="rgb(21.098328%, 70.933533%, 65.325928%)" offset="0.378906"/><stop stop-opacity="1" stop-color="rgb(21.408081%, 70.927429%, 65.357971%)" offset="0.382812"/><stop stop-opacity="1" stop-color="rgb(21.716309%, 70.921326%, 65.388489%)" offset="0.386719"/><stop stop-opacity="1" stop-color="rgb(22.026062%, 70.915222%, 65.420532%)" offset="0.390625"/><stop stop-opacity="1" stop-color="rgb(22.335815%, 70.909119%, 65.45105%)" offset="0.394531"/><stop stop-opacity="1" stop-color="rgb(22.645569%, 70.903015%, 65.481567%)" offset="0.398438"/><stop stop-opacity="1" stop-color="rgb(22.953796%, 70.896912%, 65.512085%)" offset="0.402344"/><stop stop-opacity="1" stop-color="rgb(23.26355%, 70.890808%, 65.544128%)" offset="0.40625"/><stop stop-opacity="1" stop-color="rgb(23.573303%, 70.884705%, 65.574646%)" offset="0.410156"/><stop stop-opacity="1" stop-color="rgb(23.883057%, 70.878601%, 65.605164%)" offset="0.414062"/><stop stop-opacity="1" stop-color="rgb(24.191284%, 70.872498%, 65.635681%)" offset="0.417969"/><stop stop-opacity="1" stop-color="rgb(24.501038%, 70.866394%, 65.667725%)" offset="0.421875"/><stop stop-opacity="1" stop-color="rgb(24.810791%, 70.860291%, 65.698242%)" offset="0.425781"/><stop stop-opacity="1" stop-color="rgb(25.120544%, 70.854187%, 65.72876%)" offset="0.429688"/><stop stop-opacity="1" stop-color="rgb(25.428772%, 70.848083%, 65.759277%)" offset="0.433594"/><stop stop-opacity="1" stop-color="rgb(25.738525%, 70.84198%, 65.791321%)" offset="0.4375"/><stop stop-opacity="1" stop-color="rgb(26.048279%, 70.835876%, 65.821838%)" offset="0.441406"/><stop stop-opacity="1" stop-color="rgb(26.358032%, 70.829773%, 65.852356%)" offset="0.445312"/><stop stop-opacity="1" stop-color="rgb(26.667786%, 70.823669%, 65.882874%)" offset="0.449219"/><stop stop-opacity="1" stop-color="rgb(26.977539%, 70.817566%, 65.914917%)" offset="0.453125"/><stop stop-opacity="1" stop-color="rgb(27.285767%, 70.811462%, 65.945435%)" offset="0.457031"/><stop stop-opacity="1" stop-color="rgb(27.59552%, 70.805359%, 65.975952%)" offset="0.460937"/><stop stop-opacity="1" stop-color="rgb(27.905273%, 70.799255%, 66.00647%)" offset="0.464844"/><stop stop-opacity="1" stop-color="rgb(28.215027%, 70.793152%, 66.038513%)" offset="0.46875"/><stop stop-opacity="1" stop-color="rgb(28.523254%, 70.785522%, 66.069031%)" offset="0.472656"/><stop stop-opacity="1" stop-color="rgb(28.833008%, 70.779419%, 66.099548%)" offset="0.476562"/><stop stop-opacity="1" stop-color="rgb(29.142761%, 70.773315%, 66.130066%)" offset="0.480469"/><stop stop-opacity="1" stop-color="rgb(29.452515%, 70.767212%, 66.162109%)" offset="0.484375"/><stop stop-opacity="1" stop-color="rgb(29.760742%, 70.761108%, 66.192627%)" offset="0.488281"/><stop stop-opacity="1" stop-color="rgb(30.070496%, 70.755005%, 66.223145%)" offset="0.492188"/><stop stop-opacity="1" stop-color="rgb(30.380249%, 70.748901%, 66.253662%)" offset="0.496094"/><stop stop-opacity="1" stop-color="rgb(30.690002%, 70.742798%, 66.285706%)" offset="0.5"/><stop stop-opacity="1" stop-color="rgb(30.99823%, 70.736694%, 66.316223%)" offset="0.503906"/><stop stop-opacity="1" stop-color="rgb(31.307983%, 70.730591%, 66.346741%)" offset="0.507813"/><stop stop-opacity="1" stop-color="rgb(31.617737%, 70.724487%, 66.377258%)" offset="0.511719"/><stop stop-opacity="1" stop-color="rgb(31.92749%, 70.718384%, 66.409302%)" offset="0.515625"/><stop stop-opacity="1" stop-color="rgb(32.235718%, 70.71228%, 66.439819%)" offset="0.519531"/><stop stop-opacity="1" stop-color="rgb(32.545471%, 70.706177%, 66.471863%)" offset="0.523438"/><stop stop-opacity="1" stop-color="rgb(32.855225%, 70.700073%, 66.50238%)" offset="0.527344"/><stop stop-opacity="1" stop-color="rgb(33.164978%, 70.69397%, 66.532898%)" offset="0.53125"/><stop stop-opacity="1" stop-color="rgb(33.473206%, 70.687866%, 66.563416%)" offset="0.535156"/><stop stop-opacity="1" stop-color="rgb(33.782959%, 70.681763%, 66.595459%)" offset="0.539062"/><stop stop-opacity="1" stop-color="rgb(34.092712%, 70.675659%, 66.625977%)" offset="0.542969"/><stop stop-opacity="1" stop-color="rgb(34.402466%, 70.669556%, 66.656494%)" offset="0.546875"/><stop stop-opacity="1" stop-color="rgb(34.710693%, 70.663452%, 66.687012%)" offset="0.550781"/><stop stop-opacity="1" stop-color="rgb(35.020447%, 70.657349%, 66.719055%)" offset="0.554688"/><stop stop-opacity="1" stop-color="rgb(35.3302%, 70.651245%, 66.749573%)" offset="0.558594"/><stop stop-opacity="1" stop-color="rgb(35.639954%, 70.645142%, 66.78009%)" offset="0.5625"/><stop stop-opacity="1" stop-color="rgb(35.948181%, 70.639038%, 66.810608%)" offset="0.566406"/><stop stop-opacity="1" stop-color="rgb(36.257935%, 70.632935%, 66.842651%)" offset="0.570312"/><stop stop-opacity="1" stop-color="rgb(36.567688%, 70.626831%, 66.873169%)" offset="0.574219"/><stop stop-opacity="1" stop-color="rgb(36.877441%, 70.620728%, 66.903687%)" offset="0.578125"/><stop stop-opacity="1" stop-color="rgb(37.185669%, 70.614624%, 66.934204%)" offset="0.582031"/><stop stop-opacity="1" stop-color="rgb(37.495422%, 70.608521%, 66.966248%)" offset="0.585938"/><stop stop-opacity="1" stop-color="rgb(37.805176%, 70.600891%, 66.996765%)" offset="0.589844"/><stop stop-opacity="1" stop-color="rgb(38.114929%, 70.594788%, 67.027283%)" offset="0.59375"/><stop stop-opacity="1" stop-color="rgb(38.272095%, 70.591736%, 67.042542%)" offset="0.625"/><stop stop-opacity="1" stop-color="rgb(38.42926%, 70.588684%, 67.059326%)" offset="0.75"/><stop stop-opacity="1" stop-color="rgb(38.42926%, 70.588684%, 67.059326%)" offset="1"/></linearGradient><clipPath id="57f05700dd"><rect x="0" width="317" y="0" height="326"/></clipPath><clipPath id="26eef15e96"><path d="M 0 0 L 316.210938 0 L 316.210938 325.839844 L 0 325.839844 Z M 0 0 " clip-rule="nonzero"/></clipPath><clipPath id="5b637b3494"><rect x="0" width="317" y="0" height="326"/></clipPath><clipPath id="2088e06649"><rect x="0" width="317" y="0" height="326"/></clipPath><mask id="75d80750e2"><g filter="url(#8d1230b95c)"><g transform="matrix(1, 0, 0, 1, 0, 0)"><g clip-path="url(#2088e06649)"><g clip-path="url(#26eef15e96)"><g transform="matrix(1, 0, 0, 1, 0, 0)"><g clip-path="url(#5b637b3494)"><g fill="#000000" fill-opacity="1"><g transform="translate(105.274311, 179.05153)"><g><path d="M 78.21875 -69.9375 C 78.300781 -69.613281 78.269531 -69.3125 78.125 -69.03125 C 77.988281 -68.75 77.78125 -68.550781 77.5 -68.4375 C 75.363281 -67.75 72.722656 -66.929688 69.578125 -65.984375 C 66.429688 -65.035156 62.988281 -64 59.25 -62.875 C 55.539062 -61.738281 51.585938 -60.535156 47.390625 -59.265625 C 43.203125 -58.003906 39.050781 -56.726562 34.9375 -55.4375 C 34.257812 -52.8125 33.503906 -49.675781 32.671875 -46.03125 C 31.847656 -42.382812 30.953125 -38.40625 29.984375 -34.09375 C 29.015625 -29.78125 28.007812 -25.304688 26.96875 -20.671875 C 25.957031 -16.117188 24.9375 -11.546875 23.90625 -6.953125 C 22.882812 -2.359375 21.890625 2.0625 20.921875 6.3125 C 19.953125 10.5625 19.023438 14.523438 18.140625 18.203125 C 16.722656 24.078125 15.570312 28.507812 14.6875 31.5 C 14.039062 33.789062 13.503906 35.335938 13.078125 36.140625 C 12.660156 36.953125 12.171875 37.359375 11.609375 37.359375 C 11.523438 37.359375 11.441406 37.359375 11.359375 37.359375 C 10.921875 37.273438 10.585938 37 10.359375 36.53125 C 10.140625 36.070312 10.03125 35.195312 10.03125 33.90625 C 10.03125 32.625 10.148438 30.671875 10.390625 28.046875 C 10.429688 27.722656 10.570312 27.460938 10.8125 27.265625 C 11.0625 27.066406 11.347656 26.984375 11.671875 27.015625 C 11.992188 27.054688 12.253906 27.195312 12.453125 27.4375 C 12.648438 27.6875 12.726562 27.972656 12.6875 28.296875 C 12.613281 29.179688 12.554688 29.984375 12.515625 30.703125 C 13.078125 28.734375 13.726562 26.265625 14.46875 23.296875 C 15.21875 20.335938 16.015625 17.054688 16.859375 13.453125 C 17.710938 9.847656 18.59375 6.066406 19.5 2.109375 C 20.40625 -1.835938 21.300781 -5.796875 22.1875 -9.765625 C 23.070312 -13.734375 23.914062 -17.550781 24.71875 -21.21875 C 25.6875 -25.570312 26.625 -29.789062 27.53125 -33.875 C 28.4375 -37.96875 29.300781 -41.773438 30.125 -45.296875 C 30.957031 -48.828125 31.695312 -51.925781 32.34375 -54.59375 C 30.613281 -54.0625 28.921875 -53.535156 27.265625 -53.015625 C 25.609375 -52.492188 24.015625 -51.972656 22.484375 -51.453125 C 17.929688 -49.910156 14.296875 -48.632812 11.578125 -47.625 C 8.859375 -46.625 6.820312 -45.8125 5.46875 -45.1875 C 4.125 -44.5625 3.1875 -44.066406 2.65625 -43.703125 C 3.0625 -43.421875 3.222656 -43.039062 3.140625 -42.5625 C 3.023438 -41.914062 2.644531 -41.59375 2 -41.59375 C 1.914062 -41.59375 1.832031 -41.613281 1.75 -41.65625 C 0.945312 -41.8125 0.414062 -42.0625 0.15625 -42.40625 C -0.101562 -42.75 -0.253906 -43.082031 -0.296875 -43.40625 C -0.296875 -43.8125 -0.144531 -44.210938 0.15625 -44.609375 C 0.457031 -45.015625 1.0625 -45.476562 1.96875 -46 C 2.875 -46.53125 4.234375 -47.175781 6.046875 -47.9375 C 9.347656 -49.351562 14.144531 -51.109375 20.4375 -53.203125 C 24.257812 -54.492188 28.367188 -55.820312 32.765625 -57.1875 C 37.160156 -58.5625 41.570312 -59.921875 46 -61.265625 C 50.4375 -62.617188 54.628906 -63.898438 58.578125 -65.109375 C 62.328125 -66.234375 65.765625 -67.269531 68.890625 -68.21875 C 72.015625 -69.164062 74.644531 -69.984375 76.78125 -70.671875 C 77.0625 -70.753906 77.351562 -70.722656 77.65625 -70.578125 C 77.957031 -70.441406 78.144531 -70.226562 78.21875 -69.9375 Z M 78.21875 -69.9375 "/></g></g></g><g fill="#000000" fill-opacity="1"><g transform="translate(136.047795, 179.05153)"><g><path d="M 28.65625 -13.84375 C 28.894531 -13.6875 29.054688 -13.445312 29.140625 -13.125 C 29.222656 -12.800781 29.179688 -12.5 29.015625 -12.21875 C 27.078125 -9.113281 25.363281 -6.59375 23.875 -4.65625 C 22.382812 -2.71875 21.101562 -1.242188 20.03125 -0.234375 C 18.96875 0.765625 18.070312 1.445312 17.34375 1.8125 C 16.625 2.175781 16.039062 2.359375 15.59375 2.359375 C 15.15625 2.359375 14.8125 2.335938 14.5625 2.296875 C 13.632812 2.054688 12.945312 1.5 12.5 0.625 C 12.0625 -0.238281 11.769531 -1.132812 11.625 -2.0625 C 11.488281 -2.988281 11.398438 -3.691406 11.359375 -4.171875 C 11.285156 -5.578125 11.125 -6.519531 10.875 -7 C 10.632812 -7.488281 10.457031 -7.734375 10.34375 -7.734375 C 10.300781 -7.734375 10.28125 -7.734375 10.28125 -7.734375 C 9.75 -7.734375 8.878906 -7 7.671875 -5.53125 C 6.460938 -4.0625 5.039062 -1.753906 3.40625 1.390625 C 1.78125 4.535156 0.0820312 8.625 -1.6875 13.65625 C -1.851562 14.1875 -2.21875 14.453125 -2.78125 14.453125 C -2.863281 14.453125 -2.941406 14.453125 -3.015625 14.453125 C -3.660156 14.285156 -3.960938 13.878906 -3.921875 13.234375 C -3.890625 12.554688 -3.710938 11.328125 -3.390625 9.546875 C -3.066406 7.773438 -2.628906 5.648438 -2.078125 3.171875 C -1.535156 0.691406 -0.929688 -1.992188 -0.265625 -4.890625 C 0.390625 -7.796875 1.070312 -10.738281 1.78125 -13.71875 C 2.488281 -16.707031 3.164062 -19.5625 3.8125 -22.28125 C 4.457031 -25 5.039062 -27.445312 5.5625 -29.625 C 6.082031 -31.800781 6.503906 -33.539062 6.828125 -34.84375 C 7.148438 -36.15625 7.3125 -36.832031 7.3125 -36.875 C 8.238281 -40.582031 9.265625 -43.957031 10.390625 -47 C 11.523438 -50.039062 12.644531 -52.488281 13.75 -54.34375 C 14.863281 -56.195312 15.84375 -57.207031 16.6875 -57.375 C 17.375 -57.488281 17.894531 -57.285156 18.25 -56.765625 C 18.820312 -55.960938 18.773438 -54.28125 18.109375 -51.71875 C 17.441406 -49.15625 16.226562 -45.921875 14.46875 -42.015625 C 12.71875 -38.109375 10.492188 -33.734375 7.796875 -28.890625 C 7.066406 -25.867188 6.269531 -22.566406 5.40625 -18.984375 C 4.539062 -15.398438 3.691406 -11.789062 2.859375 -8.15625 C 2.035156 -4.53125 1.285156 -1.1875 0.609375 1.875 C 1.691406 -0.425781 2.804688 -2.503906 3.953125 -4.359375 C 5.109375 -6.210938 6.257812 -7.648438 7.40625 -8.671875 C 8.550781 -9.703125 9.628906 -10.15625 10.640625 -10.03125 C 11.523438 -9.914062 12.175781 -9.472656 12.59375 -8.703125 C 13.019531 -7.941406 13.300781 -7.125 13.4375 -6.25 C 13.582031 -5.382812 13.65625 -4.753906 13.65625 -4.359375 C 13.78125 -2.859375 13.984375 -1.765625 14.265625 -1.078125 C 14.546875 -0.398438 14.828125 -0.0390625 15.109375 0 C 15.191406 0.0390625 15.460938 -0.00390625 15.921875 -0.140625 C 16.390625 -0.285156 17.078125 -0.738281 17.984375 -1.5 C 18.890625 -2.269531 20.085938 -3.59375 21.578125 -5.46875 C 23.066406 -7.34375 24.878906 -10.015625 27.015625 -13.484375 C 27.179688 -13.722656 27.425781 -13.878906 27.75 -13.953125 C 28.070312 -14.035156 28.375 -14 28.65625 -13.84375 Z M 16.265625 -53.984375 C 15.578125 -52.972656 14.65625 -51.1875 13.5 -48.625 C 12.351562 -46.070312 11.195312 -42.597656 10.03125 -38.203125 C 12.09375 -42.273438 13.59375 -45.617188 14.53125 -48.234375 C 15.476562 -50.859375 16.054688 -52.773438 16.265625 -53.984375 Z M 16.265625 -53.984375 "/></g></g></g><g fill="#000000" fill-opacity="1"><g transform="translate(162.105547, 179.05153)"><g><path d="M 20.4375 -13.484375 C 20.71875 -13.316406 20.878906 -13.070312 20.921875 -12.75 C 20.960938 -12.425781 20.898438 -12.144531 20.734375 -11.90625 C 18.359375 -8.601562 16.179688 -5.875 14.203125 -3.71875 C 12.234375 -1.5625 10.257812 0.21875 8.28125 1.625 C 6.789062 2.675781 5.320312 3.203125 3.875 3.203125 C 2.738281 3.203125 1.75 2.898438 0.90625 2.296875 C 0.34375 1.890625 -0.207031 1.171875 -0.75 0.140625 C -1.300781 -0.878906 -1.59375 -2.363281 -1.625 -4.3125 C -1.664062 -6.269531 -1.1875 -8.84375 -0.1875 -12.03125 C -0.1875 -12.03125 -0.1875 -12.050781 -0.1875 -12.09375 C 1.019531 -15.957031 2.441406 -18.90625 4.078125 -20.9375 C 5.710938 -22.976562 7.113281 -24.019531 8.28125 -24.0625 C 9.207031 -24.101562 9.8125 -23.695312 10.09375 -22.84375 C 10.539062 -21.675781 10.015625 -20.015625 8.515625 -17.859375 C 7.023438 -15.703125 4.832031 -13.414062 1.9375 -11 C 1.050781 -8.175781 0.625 -5.96875 0.65625 -4.375 C 0.695312 -2.789062 0.921875 -1.644531 1.328125 -0.9375 C 1.734375 -0.226562 2.054688 0.222656 2.296875 0.421875 C 3.503906 1.304688 5.054688 1.066406 6.953125 -0.296875 C 8.804688 -1.585938 10.679688 -3.269531 12.578125 -5.34375 C 14.472656 -7.425781 16.546875 -10.054688 18.796875 -13.234375 C 19.003906 -13.484375 19.269531 -13.632812 19.59375 -13.6875 C 19.914062 -13.75 20.195312 -13.679688 20.4375 -13.484375 Z M 7.859375 -21.515625 C 7.410156 -21.234375 6.800781 -20.640625 6.03125 -19.734375 C 5.269531 -18.828125 4.488281 -17.507812 3.6875 -15.78125 C 5.132812 -17.1875 6.160156 -18.382812 6.765625 -19.375 C 7.367188 -20.363281 7.734375 -21.078125 7.859375 -21.515625 Z M 7.859375 -21.515625 "/></g></g></g></g></g></g></g></g></g></mask><clipPath id="c2af06848f"><path d="M 0 1.226562 L 300.550781 1.226562 L 300.550781 324.441406 L 0 324.441406 Z M 0 1.226562 " clip-rule="nonzero"/></clipPath><clipPath id="e1d8602ecf"><rect x="0" width="317" y="0" height="326"/></clipPath><clipPath id="b9fea87b46"><rect x="0" width="317" y="0" height="326"/></clipPath><clipPath id="a98050602f"><path d="M 0 19 L 375 19 L 375 346.800781 L 0 346.800781 Z M 0 19 " clip-rule="nonzero"/></clipPath><clipPath id="3c04e340bc"><path d="M 0 1.082031 L 375 1.082031 L 375 327.339844 L 0 327.339844 Z M 0 1.082031 " clip-rule="nonzero"/></clipPath><clipPath id="072b8a9d20"><path d="M 0 0.0820312 L 375 0.0820312 L 375 326.339844 L 0 326.339844 Z M 0 0.0820312 " clip-rule="nonzero"/></clipPath><clipPath id="a1ddf4251c"><path d="M 0 12.136719 L 375 12.136719 L 375 314.511719 L 0 314.511719 Z M 0 12.136719 " clip-rule="nonzero"/></clipPath><linearGradient x1="-174.478089" gradientTransform="matrix(0.231911, 0, 0, 0.231889, 58.591477, 121.005645)" y1="-547.650113" x2="1286.003128" gradientUnits="userSpaceOnUse" y2="912.831151" id="91800f3532"><stop stop-opacity="1" stop-color="rgb(100%, 100%, 100%)" offset="0"/><stop stop-opacity="1" stop-color="rgb(100%, 100%, 100%)" offset="0.25"/><stop stop-opacity="1" stop-color="rgb(100%, 100%, 100%)" offset="0.28125"/><stop stop-opacity="1" stop-color="rgb(99.876404%, 99.876404%, 99.876404%)" offset="0.296875"/><stop stop-opacity="1" stop-color="rgb(99.613953%, 99.613953%, 99.613953%)" offset="0.304687"/><stop stop-opacity="1" stop-color="rgb(99.337769%, 99.337769%, 99.337769%)" offset="0.3125"/><stop stop-opacity="1" stop-color="rgb(99.060059%, 99.060059%, 99.060059%)" offset="0.320312"/><stop stop-opacity="1" stop-color="rgb(98.782349%, 98.782349%, 98.782349%)" offset="0.328125"/><stop stop-opacity="1" stop-color="rgb(98.506165%, 98.506165%, 98.506165%)" offset="0.335937"/><stop stop-opacity="1" stop-color="rgb(98.228455%, 98.228455%, 98.228455%)" offset="0.34375"/><stop stop-opacity="1" stop-color="rgb(97.950745%, 97.950745%, 97.950745%)" offset="0.351562"/><stop stop-opacity="1" stop-color="rgb(97.674561%, 97.674561%, 97.674561%)" offset="0.359375"/><stop stop-opacity="1" stop-color="rgb(97.396851%, 97.396851%, 97.396851%)" offset="0.367187"/><stop stop-opacity="1" stop-color="rgb(97.120667%, 97.120667%, 97.120667%)" offset="0.375"/><stop stop-opacity="1" stop-color="rgb(96.842957%, 96.842957%, 96.842957%)" offset="0.382812"/><stop stop-opacity="1" stop-color="rgb(96.565247%, 96.565247%, 96.565247%)" offset="0.390625"/><stop stop-opacity="1" stop-color="rgb(96.289062%, 96.289062%, 96.289062%)" offset="0.398437"/><stop stop-opacity="1" stop-color="rgb(96.011353%, 96.011353%, 96.011353%)" offset="0.40625"/><stop stop-opacity="1" stop-color="rgb(95.733643%, 95.733643%, 95.733643%)" offset="0.414062"/><stop stop-opacity="1" stop-color="rgb(95.457458%, 95.457458%, 95.457458%)" offset="0.421875"/><stop stop-opacity="1" stop-color="rgb(95.179749%, 95.179749%, 95.179749%)" offset="0.429687"/><stop stop-opacity="1" stop-color="rgb(94.902039%, 94.902039%, 94.902039%)" offset="0.4375"/><stop stop-opacity="1" stop-color="rgb(94.625854%, 94.625854%, 94.625854%)" offset="0.445312"/><stop stop-opacity="1" stop-color="rgb(94.348145%, 94.348145%, 94.348145%)" offset="0.446416"/><stop stop-opacity="1" stop-color="rgb(94.20929%, 94.20929%, 94.20929%)" offset="0.453125"/><stop stop-opacity="1" stop-color="rgb(94.070435%, 94.070435%, 94.070435%)" offset="0.460937"/><stop stop-opacity="1" stop-color="rgb(93.79425%, 93.79425%, 93.79425%)" offset="0.46875"/><stop stop-opacity="1" stop-color="rgb(93.516541%, 93.516541%, 93.516541%)" offset="0.476562"/><stop stop-opacity="1" stop-color="rgb(93.240356%, 93.240356%, 93.240356%)" offset="0.484375"/><stop stop-opacity="1" stop-color="rgb(92.962646%, 92.962646%, 92.962646%)" offset="0.492187"/><stop stop-opacity="1" stop-color="rgb(92.684937%, 92.684937%, 92.684937%)" offset="0.5"/><stop stop-opacity="1" stop-color="rgb(92.408752%, 92.408752%, 92.408752%)" offset="0.507812"/><stop stop-opacity="1" stop-color="rgb(92.131042%, 92.131042%, 92.131042%)" offset="0.515625"/><stop stop-opacity="1" stop-color="rgb(91.853333%, 91.853333%, 91.853333%)" offset="0.523437"/><stop stop-opacity="1" stop-color="rgb(91.577148%, 91.577148%, 91.577148%)" offset="0.53125"/><stop stop-opacity="1" stop-color="rgb(91.299438%, 91.299438%, 91.299438%)" offset="0.539062"/><stop stop-opacity="1" stop-color="rgb(91.021729%, 91.021729%, 91.021729%)" offset="0.546875"/><stop stop-opacity="1" stop-color="rgb(90.745544%, 90.745544%, 90.745544%)" offset="0.553584"/><stop stop-opacity="1" stop-color="rgb(90.606689%, 90.606689%, 90.606689%)" offset="0.554688"/><stop stop-opacity="1" stop-color="rgb(90.467834%, 90.467834%, 90.467834%)" offset="0.5625"/><stop stop-opacity="1" stop-color="rgb(90.190125%, 90.190125%, 90.190125%)" offset="0.570312"/><stop stop-opacity="1" stop-color="rgb(89.91394%, 89.91394%, 89.91394%)" offset="0.578125"/><stop stop-opacity="1" stop-color="rgb(89.63623%, 89.63623%, 89.63623%)" offset="0.585938"/><stop stop-opacity="1" stop-color="rgb(89.360046%, 89.360046%, 89.360046%)" offset="0.59375"/><stop stop-opacity="1" stop-color="rgb(89.082336%, 89.082336%, 89.082336%)" offset="0.601562"/><stop stop-opacity="1" stop-color="rgb(88.804626%, 88.804626%, 88.804626%)" offset="0.609375"/><stop stop-opacity="1" stop-color="rgb(88.528442%, 88.528442%, 88.528442%)" offset="0.617187"/><stop stop-opacity="1" stop-color="rgb(88.250732%, 88.250732%, 88.250732%)" offset="0.625"/><stop stop-opacity="1" stop-color="rgb(87.973022%, 87.973022%, 87.973022%)" offset="0.632812"/><stop stop-opacity="1" stop-color="rgb(87.696838%, 87.696838%, 87.696838%)" offset="0.640625"/><stop stop-opacity="1" stop-color="rgb(87.419128%, 87.419128%, 87.419128%)" offset="0.648438"/><stop stop-opacity="1" stop-color="rgb(87.141418%, 87.141418%, 87.141418%)" offset="0.65625"/><stop stop-opacity="1" stop-color="rgb(86.865234%, 86.865234%, 86.865234%)" offset="0.664062"/><stop stop-opacity="1" stop-color="rgb(86.587524%, 86.587524%, 86.587524%)" offset="0.671875"/><stop stop-opacity="1" stop-color="rgb(86.31134%, 86.31134%, 86.31134%)" offset="0.679687"/><stop stop-opacity="1" stop-color="rgb(86.03363%, 86.03363%, 86.03363%)" offset="0.6875"/><stop stop-opacity="1" stop-color="rgb(85.75592%, 85.75592%, 85.75592%)" offset="0.695312"/><stop stop-opacity="1" stop-color="rgb(85.479736%, 85.479736%, 85.479736%)" offset="0.703125"/><stop stop-opacity="1" stop-color="rgb(85.220337%, 85.220337%, 85.220337%)" offset="0.71875"/><stop stop-opacity="1" stop-color="rgb(85.099792%, 85.099792%, 85.099792%)" offset="0.75"/><stop stop-opacity="1" stop-color="rgb(85.099792%, 85.099792%, 85.099792%)" offset="1"/></linearGradient><clipPath id="94ca82919b"><rect x="0" width="375" y="0" height="327"/></clipPath><clipPath id="48d89097ed"><path d="M 0 0.0820312 L 375 0.0820312 L 375 326.339844 L 0 326.339844 Z M 0 0.0820312 " clip-rule="nonzero"/></clipPath><clipPath id="d73488cb6d"><rect x="0" width="375" y="0" height="327"/></clipPath><clipPath id="97a2c833c8"><rect x="0" width="375" y="0" height="327"/></clipPath><mask id="19f9d2c239"><g filter="url(#8d1230b95c)"><g transform="matrix(1, 0, 0, 1, 0, 0)"><g clip-path="url(#97a2c833c8)"><g clip-path="url(#48d89097ed)"><g transform="matrix(1, 0, 0, 1, 0, 0)"><g clip-path="url(#d73488cb6d)"><g fill="#000000" fill-opacity="1"><g transform="translate(75.523897, 178.165825)"><g><path d="M 46.078125 -35.375 L 46.078125 -35.015625 C 46.078125 -35.054688 46.078125 -35.082031 46.078125 -35.09375 C 46.078125 -35.113281 46.078125 -35.144531 46.078125 -35.1875 C 46.078125 -35.226562 46.078125 -35.257812 46.078125 -35.28125 C 46.078125 -35.300781 46.078125 -35.332031 46.078125 -35.375 Z M 47.21875 -2.59375 C 47.46875 -2.269531 47.550781 -1.789062 47.46875 -1.15625 C 47.34375 -0.34375 46.878906 0.0625 46.078125 0.0625 L 39.421875 0.0625 C 38.898438 0.0625 38.476562 -0.0546875 38.15625 -0.296875 C 38.03125 -0.378906 37.914062 -0.5 37.8125 -0.65625 C 37.71875 -0.820312 37.609375 -0.988281 37.484375 -1.15625 L 26.546875 -20.5625 L 13.78125 -20.5625 L 13.78125 -2.0625 C 13.78125 -1.132812 13.566406 -0.546875 13.140625 -0.296875 C 12.722656 -0.0546875 12.375 0.0625 12.09375 0.0625 L 6.59375 0.0625 C 6.3125 0.0625 5.945312 -0.0546875 5.5 -0.296875 C 5.0625 -0.546875 4.84375 -1.132812 4.84375 -2.0625 L 4.84375 -27.453125 C 4.84375 -28.378906 5.0625 -28.953125 5.5 -29.171875 C 5.945312 -29.398438 6.3125 -29.515625 6.59375 -29.515625 L 32.890625 -29.515625 C 34.421875 -29.515625 35.488281 -29.957031 36.09375 -30.84375 C 36.738281 -31.726562 37.0625 -33.175781 37.0625 -35.1875 C 37.0625 -37.207031 36.738281 -38.660156 36.09375 -39.546875 C 35.488281 -40.429688 34.421875 -40.875 32.890625 -40.875 L 6.59375 -40.875 C 6.3125 -40.875 5.945312 -40.984375 5.5 -41.203125 C 5.0625 -41.429688 4.84375 -42.007812 4.84375 -42.9375 L 4.84375 -47.703125 C 4.84375 -48.671875 5.0625 -49.265625 5.5 -49.484375 C 5.945312 -49.710938 6.3125 -49.828125 6.59375 -49.828125 L 34.46875 -49.828125 C 38.625 -49.828125 41.609375 -48.535156 43.421875 -45.953125 C 45.148438 -43.453125 46.035156 -39.863281 46.078125 -35.1875 C 46.035156 -30.507812 45.148438 -26.921875 43.421875 -24.421875 C 41.890625 -22.328125 39.628906 -21.097656 36.640625 -20.734375 Z M 47.21875 -2.59375 "/></g></g></g><g fill="#000000" fill-opacity="1"><g transform="translate(130.906091, 178.165825)"><g><path d="M 37.25 -44.203125 L 54.234375 -2.296875 C 54.484375 -1.734375 54.546875 -1.25 54.421875 -0.84375 C 54.378906 -0.6875 54.265625 -0.492188 54.078125 -0.265625 C 53.898438 -0.046875 53.570312 0.0625 53.09375 0.0625 L 46.625 0.0625 C 45.769531 0.0625 45.1875 -0.378906 44.875 -1.265625 L 29.875 -38.703125 C 29.832031 -38.785156 29.8125 -38.828125 29.8125 -38.828125 L 29.5625 -38.828125 C 29.5625 -38.828125 29.550781 -38.816406 29.53125 -38.796875 C 29.519531 -38.773438 29.492188 -38.722656 29.453125 -38.640625 L 21.703125 -19.046875 L 29.203125 -19.046875 C 30.046875 -19.046875 30.628906 -18.644531 30.953125 -17.84375 L 33.140625 -12.453125 C 33.335938 -11.765625 33.253906 -11.179688 32.890625 -10.703125 C 32.566406 -10.140625 32.046875 -9.859375 31.328125 -9.859375 L 18.078125 -9.859375 L 14.640625 -1.203125 C 14.316406 -0.359375 13.75 0.0625 12.9375 0.0625 L 6.28125 0.0625 C 5.800781 0.0625 5.46875 -0.046875 5.28125 -0.265625 C 5.101562 -0.492188 4.992188 -0.6875 4.953125 -0.84375 C 4.835938 -1.207031 4.878906 -1.691406 5.078125 -2.296875 L 21.953125 -44.203125 C 22.753906 -46.335938 23.640625 -47.804688 24.609375 -48.609375 C 24.734375 -48.691406 24.875 -48.789062 25.03125 -48.90625 C 25.195312 -49.03125 25.359375 -49.132812 25.515625 -49.21875 C 26.722656 -50.0625 28.113281 -50.484375 29.6875 -50.484375 C 31.34375 -50.484375 32.832031 -49.976562 34.15625 -48.96875 C 35.488281 -47.96875 36.398438 -46.679688 36.890625 -45.109375 C 36.960938 -44.984375 37.03125 -44.835938 37.09375 -44.671875 C 37.15625 -44.515625 37.207031 -44.359375 37.25 -44.203125 Z M 37.25 -44.203125 "/></g></g></g><g fill="#000000" fill-opacity="1"><g transform="translate(193.301745, 178.165825)"><g><path d="M 46.078125 -35.375 L 46.078125 -35.015625 C 46.078125 -35.054688 46.078125 -35.082031 46.078125 -35.09375 C 46.078125 -35.113281 46.078125 -35.144531 46.078125 -35.1875 C 46.078125 -35.226562 46.078125 -35.257812 46.078125 -35.28125 C 46.078125 -35.300781 46.078125 -35.332031 46.078125 -35.375 Z M 47.21875 -2.59375 C 47.46875 -2.269531 47.550781 -1.789062 47.46875 -1.15625 C 47.34375 -0.34375 46.878906 0.0625 46.078125 0.0625 L 39.421875 0.0625 C 38.898438 0.0625 38.476562 -0.0546875 38.15625 -0.296875 C 38.03125 -0.378906 37.914062 -0.5 37.8125 -0.65625 C 37.71875 -0.820312 37.609375 -0.988281 37.484375 -1.15625 L 26.546875 -20.5625 L 13.78125 -20.5625 L 13.78125 -2.0625 C 13.78125 -1.132812 13.566406 -0.546875 13.140625 -0.296875 C 12.722656 -0.0546875 12.375 0.0625 12.09375 0.0625 L 6.59375 0.0625 C 6.3125 0.0625 5.945312 -0.0546875 5.5 -0.296875 C 5.0625 -0.546875 4.84375 -1.132812 4.84375 -2.0625 L 4.84375 -27.453125 C 4.84375 -28.378906 5.0625 -28.953125 5.5 -29.171875 C 5.945312 -29.398438 6.3125 -29.515625 6.59375 -29.515625 L 32.890625 -29.515625 C 34.421875 -29.515625 35.488281 -29.957031 36.09375 -30.84375 C 36.738281 -31.726562 37.0625 -33.175781 37.0625 -35.1875 C 37.0625 -37.207031 36.738281 -38.660156 36.09375 -39.546875 C 35.488281 -40.429688 34.421875 -40.875 32.890625 -40.875 L 6.59375 -40.875 C 6.3125 -40.875 5.945312 -40.984375 5.5 -41.203125 C 5.0625 -41.429688 4.84375 -42.007812 4.84375 -42.9375 L 4.84375 -47.703125 C 4.84375 -48.671875 5.0625 -49.265625 5.5 -49.484375 C 5.945312 -49.710938 6.3125 -49.828125 6.59375 -49.828125 L 34.46875 -49.828125 C 38.625 -49.828125 41.609375 -48.535156 43.421875 -45.953125 C 45.148438 -43.453125 46.035156 -39.863281 46.078125 -35.1875 C 46.035156 -30.507812 45.148438 -26.921875 43.421875 -24.421875 C 41.890625 -22.328125 39.628906 -21.097656 36.640625 -20.734375 Z M 47.21875 -2.59375 "/></g></g></g><g fill="#000000" fill-opacity="1"><g transform="translate(248.683939, 178.165825)"><g><path d="M 41.171875 -10.828125 C 41.460938 -10.828125 41.828125 -10.710938 42.265625 -10.484375 C 42.710938 -10.265625 42.9375 -9.691406 42.9375 -8.765625 L 42.9375 -2.109375 C 42.9375 -1.179688 42.710938 -0.609375 42.265625 -0.390625 C 41.828125 -0.171875 41.460938 -0.0625 41.171875 -0.0625 L 19.71875 -0.0625 C 18.382812 -0.0625 17.148438 -0.140625 16.015625 -0.296875 C 14.890625 -0.460938 13.863281 -0.726562 12.9375 -1.09375 C 10.96875 -1.769531 9.394531 -2.878906 8.21875 -4.421875 C 7.007812 -5.984375 6.144531 -7.957031 5.625 -10.34375 C 5.425781 -11.351562 5.253906 -12.460938 5.109375 -13.671875 C 4.960938 -14.878906 4.875 -16.1875 4.84375 -17.59375 L 4.84375 -17.90625 L 4.953125 -25.515625 C 5.078125 -25.960938 5.300781 -26.46875 5.625 -27.03125 C 6.507812 -28.601562 7.878906 -29.445312 9.734375 -29.5625 L 40.9375 -29.625 C 41.175781 -29.625 41.515625 -29.515625 41.953125 -29.296875 C 42.398438 -29.078125 42.625 -28.503906 42.625 -27.578125 L 42.625 -22.796875 C 42.625 -21.867188 42.398438 -21.285156 41.953125 -21.046875 C 41.515625 -20.804688 41.175781 -20.6875 40.9375 -20.6875 L 13.90625 -20.6875 C 13.90625 -20.6875 13.894531 -20.460938 13.875 -20.015625 C 13.851562 -19.566406 13.832031 -19.0625 13.8125 -18.5 C 13.789062 -17.9375 13.78125 -17.429688 13.78125 -16.984375 C 13.78125 -16.546875 13.78125 -16.328125 13.78125 -16.328125 C 13.820312 -16.160156 13.84375 -15.988281 13.84375 -15.8125 C 13.84375 -15.632812 13.863281 -15.460938 13.90625 -15.296875 C 14.070312 -14.171875 14.414062 -13.265625 14.9375 -12.578125 C 15.414062 -11.972656 16.019531 -11.53125 16.75 -11.25 C 17.195312 -11.125 17.671875 -11.019531 18.171875 -10.9375 C 18.671875 -10.863281 19.242188 -10.828125 19.890625 -10.828125 Z M 10.15625 -29.078125 Z M 41.234375 -49.953125 C 41.484375 -49.953125 41.828125 -49.828125 42.265625 -49.578125 C 42.710938 -49.335938 42.9375 -48.753906 42.9375 -47.828125 L 42.9375 -43.046875 C 42.9375 -42.117188 42.710938 -41.535156 42.265625 -41.296875 C 41.828125 -41.054688 41.484375 -40.9375 41.234375 -40.9375 L 6.46875 -41 C 6.226562 -41 5.894531 -41.109375 5.46875 -41.328125 C 5.050781 -41.546875 4.84375 -42.117188 4.84375 -43.046875 L 4.84375 -47.765625 C 4.84375 -48.734375 5.050781 -49.335938 5.46875 -49.578125 C 5.894531 -49.828125 6.226562 -49.953125 6.46875 -49.953125 Z M 41.234375 -49.953125 "/></g></g></g></g></g></g></g></g></g></mask><clipPath id="21ebec1d9b"><path d="M 0 12.136719 L 375 12.136719 L 375 314.511719 L 0 314.511719 Z M 0 12.136719 " clip-rule="nonzero"/></clipPath><clipPath id="9db8c715f9"><rect x="0" width="375" y="0" height="327"/></clipPath><clipPath id="e8740f69fc"><rect x="0" width="375" y="0" height="327"/></clipPath><clipPath id="693efa306d"><rect x="0" width="375" y="0" height="328"/></clipPath><clipPath id="8be766cbf4"><path d="M 1.453125 0.636719 L 334.28125 0.636719 L 334.28125 136.0625 L 1.453125 136.0625 Z M 1.453125 0.636719 " clip-rule="nonzero"/></clipPath><clipPath id="3b401d74d8"><path d="M 0.453125 0.636719 L 333.28125 0.636719 L 333.28125 136.0625 L 0.453125 136.0625 Z M 0.453125 0.636719 " clip-rule="nonzero"/></clipPath><clipPath id="b82ab750f6"><path d="M 5.90625 2.359375 L 328.117188 2.359375 L 328.117188 134.628906 L 5.90625 134.628906 Z M 5.90625 2.359375 " clip-rule="nonzero"/></clipPath><linearGradient x1="-156.408997" gradientTransform="matrix(0.287043, 0, 0, 0.287113, 50.800494, 50.979713)" y1="61" x2="966.112973" gradientUnits="userSpaceOnUse" y2="61" id="b27427b7dd"><stop stop-opacity="1" stop-color="rgb(18.818665%, 70.979309%, 65.098572%)" offset="0"/><stop stop-opacity="1" stop-color="rgb(18.818665%, 70.979309%, 65.098572%)" offset="0.125"/><stop stop-opacity="1" stop-color="rgb(18.818665%, 70.979309%, 65.098572%)" offset="0.15625"/><stop stop-opacity="1" stop-color="rgb(18.93158%, 70.976257%, 65.110779%)" offset="0.164062"/><stop stop-opacity="1" stop-color="rgb(19.154358%, 70.97168%, 65.132141%)" offset="0.171875"/><stop stop-opacity="1" stop-color="rgb(19.377136%, 70.967102%, 65.155029%)" offset="0.179688"/><stop stop-opacity="1" stop-color="rgb(19.599915%, 70.962524%, 65.176392%)" offset="0.1875"/><stop stop-opacity="1" stop-color="rgb(19.822693%, 70.957947%, 65.19928%)" offset="0.195312"/><stop stop-opacity="1" stop-color="rgb(20.045471%, 70.954895%, 65.220642%)" offset="0.203125"/><stop stop-opacity="1" stop-color="rgb(20.26825%, 70.950317%, 65.24353%)" offset="0.210937"/><stop stop-opacity="1" stop-color="rgb(20.491028%, 70.94574%, 65.266418%)" offset="0.21875"/><stop stop-opacity="1" stop-color="rgb(20.713806%, 70.941162%, 65.287781%)" offset="0.226562"/><stop stop-opacity="1" stop-color="rgb(20.936584%, 70.936584%, 65.310669%)" offset="0.234375"/><stop stop-opacity="1" stop-color="rgb(21.159363%, 70.932007%, 65.332031%)" offset="0.242187"/><stop stop-opacity="1" stop-color="rgb(21.382141%, 70.927429%, 65.354919%)" offset="0.25"/><stop stop-opacity="1" stop-color="rgb(21.604919%, 70.922852%, 65.377808%)" offset="0.257812"/><stop stop-opacity="1" stop-color="rgb(21.827698%, 70.918274%, 65.39917%)" offset="0.265625"/><stop stop-opacity="1" stop-color="rgb(22.050476%, 70.913696%, 65.422058%)" offset="0.273438"/><stop stop-opacity="1" stop-color="rgb(22.27478%, 70.909119%, 65.44342%)" offset="0.28125"/><stop stop-opacity="1" stop-color="rgb(22.497559%, 70.906067%, 65.466309%)" offset="0.289062"/><stop stop-opacity="1" stop-color="rgb(22.720337%, 70.901489%, 65.489197%)" offset="0.296875"/><stop stop-opacity="1" stop-color="rgb(22.943115%, 70.896912%, 65.510559%)" offset="0.304688"/><stop stop-opacity="1" stop-color="rgb(23.165894%, 70.892334%, 65.533447%)" offset="0.3125"/><stop stop-opacity="1" stop-color="rgb(23.388672%, 70.887756%, 65.55481%)" offset="0.320312"/><stop stop-opacity="1" stop-color="rgb(23.61145%, 70.883179%, 65.577698%)" offset="0.328125"/><stop stop-opacity="1" stop-color="rgb(23.834229%, 70.878601%, 65.600586%)" offset="0.335938"/><stop stop-opacity="1" stop-color="rgb(24.057007%, 70.874023%, 65.621948%)" offset="0.34375"/><stop stop-opacity="1" stop-color="rgb(24.279785%, 70.869446%, 65.644836%)" offset="0.351562"/><stop stop-opacity="1" stop-color="rgb(24.502563%, 70.864868%, 65.666199%)" offset="0.359375"/><stop stop-opacity="1" stop-color="rgb(24.725342%, 70.861816%, 65.689087%)" offset="0.367188"/><stop stop-opacity="1" stop-color="rgb(24.94812%, 70.857239%, 65.711975%)" offset="0.375"/><stop stop-opacity="1" stop-color="rgb(25.170898%, 70.852661%, 65.733337%)" offset="0.382812"/><stop stop-opacity="1" stop-color="rgb(25.393677%, 70.848083%, 65.756226%)" offset="0.390625"/><stop stop-opacity="1" stop-color="rgb(25.616455%, 70.843506%, 65.777588%)" offset="0.398437"/><stop stop-opacity="1" stop-color="rgb(25.839233%, 70.838928%, 65.800476%)" offset="0.40625"/><stop stop-opacity="1" stop-color="rgb(26.062012%, 70.834351%, 65.823364%)" offset="0.414062"/><stop stop-opacity="1" stop-color="rgb(26.28479%, 70.829773%, 65.844727%)" offset="0.421875"/><stop stop-opacity="1" stop-color="rgb(26.507568%, 70.825195%, 65.867615%)" offset="0.429687"/><stop stop-opacity="1" stop-color="rgb(26.730347%, 70.820618%, 65.888977%)" offset="0.4375"/><stop stop-opacity="1" stop-color="rgb(26.953125%, 70.81604%, 65.911865%)" offset="0.445312"/><stop stop-opacity="1" stop-color="rgb(27.175903%, 70.812988%, 65.934753%)" offset="0.453125"/><stop stop-opacity="1" stop-color="rgb(27.398682%, 70.808411%, 65.956116%)" offset="0.460937"/><stop stop-opacity="1" stop-color="rgb(27.62146%, 70.803833%, 65.979004%)" offset="0.46875"/><stop stop-opacity="1" stop-color="rgb(27.844238%, 70.799255%, 66.000366%)" offset="0.476562"/><stop stop-opacity="1" stop-color="rgb(28.067017%, 70.794678%, 66.023254%)" offset="0.484375"/><stop stop-opacity="1" stop-color="rgb(28.289795%, 70.7901%, 66.044617%)" offset="0.492188"/><stop stop-opacity="1" stop-color="rgb(28.512573%, 70.785522%, 66.067505%)" offset="0.5"/><stop stop-opacity="1" stop-color="rgb(28.735352%, 70.780945%, 66.090393%)" offset="0.507812"/><stop stop-opacity="1" stop-color="rgb(28.95813%, 70.776367%, 66.111755%)" offset="0.515625"/><stop stop-opacity="1" stop-color="rgb(29.180908%, 70.77179%, 66.134644%)" offset="0.523438"/><stop stop-opacity="1" stop-color="rgb(29.403687%, 70.768738%, 66.156006%)" offset="0.53125"/><stop stop-opacity="1" stop-color="rgb(29.626465%, 70.76416%, 66.178894%)" offset="0.539062"/><stop stop-opacity="1" stop-color="rgb(29.849243%, 70.759583%, 66.201782%)" offset="0.546875"/><stop stop-opacity="1" stop-color="rgb(30.072021%, 70.755005%, 66.223145%)" offset="0.554688"/><stop stop-opacity="1" stop-color="rgb(30.2948%, 70.750427%, 66.246033%)" offset="0.5625"/><stop stop-opacity="1" stop-color="rgb(30.517578%, 70.74585%, 66.267395%)" offset="0.570312"/><stop stop-opacity="1" stop-color="rgb(30.740356%, 70.741272%, 66.290283%)" offset="0.578125"/><stop stop-opacity="1" stop-color="rgb(30.963135%, 70.736694%, 66.313171%)" offset="0.585938"/><stop stop-opacity="1" stop-color="rgb(31.185913%, 70.732117%, 66.334534%)" offset="0.59375"/><stop stop-opacity="1" stop-color="rgb(31.408691%, 70.727539%, 66.357422%)" offset="0.601562"/><stop stop-opacity="1" stop-color="rgb(31.63147%, 70.724487%, 66.378784%)" offset="0.609375"/><stop stop-opacity="1" stop-color="rgb(31.855774%, 70.71991%, 66.401672%)" offset="0.617188"/><stop stop-opacity="1" stop-color="rgb(32.078552%, 70.715332%, 66.424561%)" offset="0.625"/><stop stop-opacity="1" stop-color="rgb(32.301331%, 70.710754%, 66.445923%)" offset="0.632813"/><stop stop-opacity="1" stop-color="rgb(32.524109%, 70.706177%, 66.468811%)" offset="0.640625"/><stop stop-opacity="1" stop-color="rgb(32.746887%, 70.701599%, 66.490173%)" offset="0.648438"/><stop stop-opacity="1" stop-color="rgb(32.969666%, 70.697021%, 66.513062%)" offset="0.65625"/><stop stop-opacity="1" stop-color="rgb(33.192444%, 70.692444%, 66.53595%)" offset="0.664062"/><stop stop-opacity="1" stop-color="rgb(33.415222%, 70.687866%, 66.557312%)" offset="0.671875"/><stop stop-opacity="1" stop-color="rgb(33.638%, 70.683289%, 66.5802%)" offset="0.679688"/><stop stop-opacity="1" stop-color="rgb(33.860779%, 70.678711%, 66.601562%)" offset="0.6875"/><stop stop-opacity="1" stop-color="rgb(34.083557%, 70.675659%, 66.624451%)" offset="0.695313"/><stop stop-opacity="1" stop-color="rgb(34.306335%, 70.671082%, 66.647339%)" offset="0.703125"/><stop stop-opacity="1" stop-color="rgb(34.529114%, 70.666504%, 66.668701%)" offset="0.710938"/><stop stop-opacity="1" stop-color="rgb(34.751892%, 70.661926%, 66.691589%)" offset="0.71875"/><stop stop-opacity="1" stop-color="rgb(34.97467%, 70.657349%, 66.712952%)" offset="0.726562"/><stop stop-opacity="1" stop-color="rgb(35.197449%, 70.652771%, 66.73584%)" offset="0.734375"/><stop stop-opacity="1" stop-color="rgb(35.420227%, 70.648193%, 66.758728%)" offset="0.742188"/><stop stop-opacity="1" stop-color="rgb(35.643005%, 70.643616%, 66.78009%)" offset="0.75"/><stop stop-opacity="1" stop-color="rgb(35.865784%, 70.639038%, 66.802979%)" offset="0.757812"/><stop stop-opacity="1" stop-color="rgb(36.088562%, 70.63446%, 66.824341%)" offset="0.765625"/><stop stop-opacity="1" stop-color="rgb(36.31134%, 70.631409%, 66.847229%)" offset="0.773438"/><stop stop-opacity="1" stop-color="rgb(36.534119%, 70.626831%, 66.870117%)" offset="0.78125"/><stop stop-opacity="1" stop-color="rgb(36.756897%, 70.622253%, 66.891479%)" offset="0.789062"/><stop stop-opacity="1" stop-color="rgb(36.979675%, 70.617676%, 66.914368%)" offset="0.796875"/><stop stop-opacity="1" stop-color="rgb(37.202454%, 70.613098%, 66.93573%)" offset="0.804687"/><stop stop-opacity="1" stop-color="rgb(37.425232%, 70.608521%, 66.958618%)" offset="0.8125"/><stop stop-opacity="1" stop-color="rgb(37.64801%, 70.603943%, 66.97998%)" offset="0.820312"/><stop stop-opacity="1" stop-color="rgb(37.870789%, 70.599365%, 67.002869%)" offset="0.828125"/><stop stop-opacity="1" stop-color="rgb(38.093567%, 70.594788%, 67.025757%)" offset="0.835938"/><stop stop-opacity="1" stop-color="rgb(38.316345%, 70.59021%, 67.047119%)" offset="0.84375"/><stop stop-opacity="1" stop-color="rgb(38.427734%, 70.588684%, 67.059326%)" offset="0.875"/><stop stop-opacity="1" stop-color="rgb(38.42926%, 70.588684%, 67.059326%)" offset="1"/></linearGradient><clipPath id="f14656c18d"><rect x="0" width="334" y="0" height="137"/></clipPath><clipPath id="f14802f8d5"><path d="M 0.453125 0.636719 L 333.28125 0.636719 L 333.28125 136.0625 L 0.453125 136.0625 Z M 0.453125 0.636719 " clip-rule="nonzero"/></clipPath><clipPath id="2dc73b645e"><rect x="0" width="334" y="0" height="137"/></clipPath><clipPath id="6a5dc80136"><rect x="0" width="334" y="0" height="137"/></clipPath><mask id="3b9fcb3683"><g filter="url(#8d1230b95c)"><g><g clip-path="url(#6a5dc80136)"><g clip-path="url(#f14802f8d5)"><g><g clip-path="url(#2dc73b645e)"><g fill="#000000" fill-opacity="1"><g transform="translate(56.096655, 77.818618)"><g><path d="M 12.328125 -17.609375 C 13.890625 -17.609375 15.253906 -17.375 16.421875 -16.90625 C 17.597656 -16.445312 18.578125 -15.8125 19.359375 -15 C 20.148438 -14.1875 20.75 -13.25 21.15625 -12.1875 C 21.5625 -11.125 21.765625 -10 21.765625 -8.8125 C 21.765625 -7.195312 21.40625 -5.722656 20.6875 -4.390625 C 19.976562 -3.054688 18.925781 -1.988281 17.53125 -1.1875 C 16.144531 -0.394531 14.410156 0 12.328125 0 L 3.96875 0 L 3.96875 -17.609375 Z M 12.203125 -2.609375 C 13.773438 -2.609375 15.050781 -2.882812 16.03125 -3.4375 C 17.019531 -4 17.742188 -4.75 18.203125 -5.6875 C 18.660156 -6.625 18.890625 -7.664062 18.890625 -8.8125 C 18.890625 -9.914062 18.660156 -10.9375 18.203125 -11.875 C 17.742188 -12.8125 17.019531 -13.566406 16.03125 -14.140625 C 15.050781 -14.710938 13.773438 -15 12.203125 -15 L 6.6875 -15 L 6.6875 -2.609375 Z M 12.203125 -2.609375 "/></g></g></g><g fill="#000000" fill-opacity="1"><g transform="translate(80.492715, 77.818618)"><g><path d="M 3.96875 -17.609375 L 17.609375 -17.609375 L 17.609375 -15 L 6.6875 -15 L 6.6875 -10.34375 L 16.21875 -10.34375 L 16.21875 -7.71875 L 6.6875 -7.71875 L 6.6875 -2.609375 L 17.609375 -2.609375 L 17.609375 0 L 3.96875 0 Z M 3.96875 -17.609375 "/></g></g></g><g fill="#000000" fill-opacity="1"><g transform="translate(101.518601, 77.818618)"><g><path d="M 20.453125 -17.609375 L 12.75 0 L 9.65625 0 L 1.84375 -17.609375 L 4.90625 -17.609375 L 9.484375 -7.0625 C 9.753906 -6.425781 10.0625 -5.734375 10.40625 -4.984375 C 10.75 -4.242188 11.054688 -3.519531 11.328125 -2.8125 C 11.585938 -3.519531 11.875 -4.238281 12.1875 -4.96875 C 12.5 -5.695312 12.78125 -6.378906 13.03125 -7.015625 L 17.25 -17.609375 Z M 20.453125 -17.609375 "/></g></g></g><g fill="#000000" fill-opacity="1"><g transform="translate(123.802015, 77.818618)"><g><path d="M 3.96875 -17.609375 L 17.609375 -17.609375 L 17.609375 -15 L 6.6875 -15 L 6.6875 -10.34375 L 16.21875 -10.34375 L 16.21875 -7.71875 L 6.6875 -7.71875 L 6.6875 -2.609375 L 17.609375 -2.609375 L 17.609375 0 L 3.96875 0 Z M 3.96875 -17.609375 "/></g></g></g><g fill="#000000" fill-opacity="1"><g transform="translate(144.827896, 77.818618)"><g><path d="M 17.484375 -2.609375 L 17.484375 0 L 3.96875 0 L 3.96875 -17.609375 L 6.6875 -17.609375 L 6.6875 -2.609375 Z M 17.484375 -2.609375 "/></g></g></g><g fill="#000000" fill-opacity="1"><g transform="translate(164.797382, 77.818618)"><g><path d="M 22.8125 -8.8125 C 22.8125 -7.53125 22.5625 -6.335938 22.0625 -5.234375 C 21.570312 -4.140625 20.875 -3.179688 19.96875 -2.359375 C 19.0625 -1.535156 17.992188 -0.894531 16.765625 -0.4375 C 15.546875 0.0195312 14.203125 0.25 12.734375 0.25 C 11.253906 0.25 9.894531 0.0195312 8.65625 -0.4375 C 7.425781 -0.894531 6.363281 -1.535156 5.46875 -2.359375 C 4.570312 -3.179688 3.878906 -4.140625 3.390625 -5.234375 C 2.910156 -6.335938 2.671875 -7.53125 2.671875 -8.8125 C 2.671875 -10.082031 2.910156 -11.265625 3.390625 -12.359375 C 3.878906 -13.460938 4.570312 -14.425781 5.46875 -15.25 C 6.363281 -16.070312 7.425781 -16.710938 8.65625 -17.171875 C 9.894531 -17.628906 11.253906 -17.859375 12.734375 -17.859375 C 14.203125 -17.859375 15.546875 -17.628906 16.765625 -17.171875 C 17.992188 -16.710938 19.0625 -16.070312 19.96875 -15.25 C 20.875 -14.425781 21.570312 -13.460938 22.0625 -12.359375 C 22.5625 -11.265625 22.8125 -10.082031 22.8125 -8.8125 Z M 20.046875 -8.8125 C 20.046875 -10.03125 19.726562 -11.117188 19.09375 -12.078125 C 18.46875 -13.046875 17.609375 -13.8125 16.515625 -14.375 C 15.421875 -14.9375 14.160156 -15.21875 12.734375 -15.21875 C 11.285156 -15.21875 10.007812 -14.9375 8.90625 -14.375 C 7.8125 -13.8125 6.957031 -13.046875 6.34375 -12.078125 C 5.738281 -11.117188 5.4375 -10.03125 5.4375 -8.8125 C 5.4375 -7.582031 5.738281 -6.484375 6.34375 -5.515625 C 6.957031 -4.554688 7.8125 -3.796875 8.90625 -3.234375 C 10.007812 -2.671875 11.285156 -2.390625 12.734375 -2.390625 C 14.160156 -2.390625 15.421875 -2.671875 16.515625 -3.234375 C 17.609375 -3.796875 18.46875 -4.5625 19.09375 -5.53125 C 19.726562 -6.507812 20.046875 -7.601562 20.046875 -8.8125 Z M 20.046875 -8.8125 "/></g></g></g><g fill="#000000" fill-opacity="1"><g transform="translate(190.249766, 77.818618)"><g><path d="M 13.40625 -17.609375 C 14.414062 -17.609375 15.335938 -17.367188 16.171875 -16.890625 C 17.015625 -16.410156 17.691406 -15.765625 18.203125 -14.953125 C 18.710938 -14.140625 18.96875 -13.222656 18.96875 -12.203125 C 18.96875 -11.140625 18.691406 -10.1875 18.140625 -9.34375 C 17.597656 -8.5 16.878906 -7.820312 15.984375 -7.3125 C 15.085938 -6.8125 14.101562 -6.5625 13.03125 -6.5625 L 6.6875 -6.5625 L 6.6875 0 L 3.96875 0 L 3.96875 -17.609375 Z M 12.859375 -9.1875 C 13.441406 -9.1875 13.976562 -9.320312 14.46875 -9.59375 C 14.96875 -9.875 15.363281 -10.238281 15.65625 -10.6875 C 15.945312 -11.144531 16.09375 -11.648438 16.09375 -12.203125 C 16.09375 -12.722656 15.945312 -13.191406 15.65625 -13.609375 C 15.363281 -14.023438 14.96875 -14.359375 14.46875 -14.609375 C 13.976562 -14.867188 13.441406 -15 12.859375 -15 L 6.6875 -15 L 6.6875 -9.1875 Z M 12.859375 -9.1875 "/></g></g></g><g fill="#000000" fill-opacity="1"><g transform="translate(211.979859, 77.818618)"><g><path d="M 3.96875 -17.609375 L 17.609375 -17.609375 L 17.609375 -15 L 6.6875 -15 L 6.6875 -10.34375 L 16.21875 -10.34375 L 16.21875 -7.71875 L 6.6875 -7.71875 L 6.6875 -2.609375 L 17.609375 -2.609375 L 17.609375 0 L 3.96875 0 Z M 3.96875 -17.609375 "/></g></g></g><g fill="#000000" fill-opacity="1"><g transform="translate(233.005745, 77.818618)"><g><path d="M 19.171875 -12.15625 C 19.171875 -11.34375 19 -10.585938 18.65625 -9.890625 C 18.3125 -9.203125 17.84375 -8.59375 17.25 -8.0625 C 16.664062 -7.53125 15.988281 -7.140625 15.21875 -6.890625 L 20.09375 0.03125 L 16.734375 0 L 12.171875 -6.515625 L 6.6875 -6.515625 L 6.6875 0 L 3.96875 0 L 3.96875 -17.609375 L 13.484375 -17.609375 C 14.492188 -17.609375 15.425781 -17.375 16.28125 -16.90625 C 17.144531 -16.4375 17.84375 -15.789062 18.375 -14.96875 C 18.90625 -14.144531 19.171875 -13.207031 19.171875 -12.15625 Z M 12.828125 -15 L 6.6875 -15 L 6.6875 -9.125 L 13.03125 -9.125 C 13.632812 -9.125 14.179688 -9.265625 14.671875 -9.546875 C 15.171875 -9.828125 15.566406 -10.195312 15.859375 -10.65625 C 16.148438 -11.113281 16.296875 -11.613281 16.296875 -12.15625 C 16.296875 -12.707031 16.132812 -13.195312 15.8125 -13.625 C 15.5 -14.050781 15.078125 -14.382812 14.546875 -14.625 C 14.023438 -14.875 13.453125 -15 12.828125 -15 Z M 12.828125 -15 "/></g></g></g><g fill="#000000" fill-opacity="1"><g transform="translate(256.219732, 77.818618)"><g><path d="M 4.421875 -5.40625 C 5.328125 -4.382812 6.285156 -3.59375 7.296875 -3.03125 C 8.304688 -2.46875 9.53125 -2.1875 10.96875 -2.1875 C 11.738281 -2.1875 12.488281 -2.285156 13.21875 -2.484375 C 13.945312 -2.691406 14.546875 -2.992188 15.015625 -3.390625 C 15.484375 -3.796875 15.71875 -4.3125 15.71875 -4.9375 C 15.71875 -5.769531 15.253906 -6.351562 14.328125 -6.6875 C 13.398438 -7.019531 12.085938 -7.304688 10.390625 -7.546875 C 8.992188 -7.734375 7.785156 -8.035156 6.765625 -8.453125 C 5.742188 -8.867188 4.953125 -9.425781 4.390625 -10.125 C 3.828125 -10.820312 3.546875 -11.691406 3.546875 -12.734375 C 3.546875 -13.804688 3.875 -14.722656 4.53125 -15.484375 C 5.1875 -16.242188 6.070312 -16.828125 7.1875 -17.234375 C 8.300781 -17.648438 9.535156 -17.859375 10.890625 -17.859375 C 12.554688 -17.859375 14 -17.585938 15.21875 -17.046875 C 16.445312 -16.515625 17.410156 -15.753906 18.109375 -14.765625 L 16.28125 -12.796875 C 15.675781 -13.578125 14.914062 -14.207031 14 -14.6875 C 13.082031 -15.175781 12.019531 -15.421875 10.8125 -15.421875 C 9.570312 -15.421875 8.53125 -15.207031 7.6875 -14.78125 C 6.851562 -14.351562 6.4375 -13.753906 6.4375 -12.984375 C 6.4375 -12.359375 6.640625 -11.863281 7.046875 -11.5 C 7.460938 -11.144531 8.035156 -10.863281 8.765625 -10.65625 C 9.492188 -10.457031 10.351562 -10.289062 11.34375 -10.15625 C 12.28125 -10.03125 13.179688 -9.863281 14.046875 -9.65625 C 14.910156 -9.457031 15.6875 -9.179688 16.375 -8.828125 C 17.0625 -8.472656 17.601562 -8.019531 18 -7.46875 C 18.40625 -6.914062 18.609375 -6.222656 18.609375 -5.390625 C 18.609375 -4.242188 18.296875 -3.242188 17.671875 -2.390625 C 17.046875 -1.546875 16.148438 -0.894531 14.984375 -0.4375 C 13.816406 0.0195312 12.445312 0.25 10.875 0.25 C 9.175781 0.25 7.640625 -0.015625 6.265625 -0.546875 C 4.898438 -1.085938 3.703125 -1.960938 2.671875 -3.171875 Z M 4.421875 -5.40625 "/></g></g></g></g></g></g></g></g></g></mask><clipPath id="9b822a33e1"><path d="M 5.90625 2.359375 L 328.117188 2.359375 L 328.117188 134.628906 L 5.90625 134.628906 Z M 5.90625 2.359375 " clip-rule="nonzero"/></clipPath><clipPath id="60a70f495d"><rect x="0" width="334" y="0" height="137"/></clipPath><clipPath id="6dd7ae1264"><rect x="0" width="334" y="0" height="137"/></clipPath><clipPath id="c767606543"><rect x="0" width="335" y="0" height="137"/></clipPath><clipPath id="f338c9b458"><rect x="0" width="375" y="0" height="347"/></clipPath></defs><g transform="matrix(1, 0, 0, 1, 0, 0)"><g clip-path="url(#f338c9b458)"><g clip-path="url(#85b5da5b60)"><g transform="matrix(1, 0, 0, 1, 0, 0)"><g clip-path="url(#b9fea87b46)"><g clip-path="url(#f0441dbea7)"><g mask="url(#75d80750e2)"><g transform="matrix(1, 0, 0, 1, 0, 0)"><g clip-path="url(#e1d8602ecf)"><g clip-path="url(#c2af06848f)"><path fill="url(#5c31cdd947)" d="M 0 1.226562 L 0 324.441406 L 300.550781 324.441406 L 300.550781 1.226562 Z M 0 1.226562 " fill-rule="nonzero"/></g></g></g></g></g></g></g></g><g clip-path="url(#a98050602f)"><g transform="matrix(1, 0, 0, 1, 0, 19)"><g clip-path="url(#693efa306d)"><g clip-path="url(#3c04e340bc)"><g transform="matrix(1, 0, 0, 1, 0, 1)"><g clip-path="url(#e8740f69fc)"><g clip-path="url(#072b8a9d20)"><g mask="url(#19f9d2c239)"><g transform="matrix(1, 0, 0, 1, 0, 0)"><g clip-path="url(#9db8c715f9)"><g clip-path="url(#21ebec1d9b)"><path fill="url(#91800f3532)" d="M 0 12.136719 L 0 314.511719 L 375 314.511719 L 375 12.136719 Z M 0 12.136719 " fill-rule="nonzero"/></g></g></g></g></g></g></g></g></g></g></g><g transform="matrix(1, 0, 0, 1, 18, 165)"><g clip-path="url(#c767606543)"><g clip-path="url(#8be766cbf4)"><g transform="matrix(1, 0, 0, 1, 1, 0)"><g clip-path="url(#6dd7ae1264)"><g clip-path="url(#3b401d74d8)"><g mask="url(#3b9fcb3683)"><g><g clip-path="url(#60a70f495d)"><g clip-path="url(#9b822a33e1)"><path fill="url(#b27427b7dd)" d="M 5.90625 2.359375 L 5.90625 134.628906 L 328.117188 134.628906 L 328.117188 2.359375 Z M 5.90625 2.359375 " fill-rule="nonzero"/></g></g></g></g></g></g></g></g></g></g></g></g></svg>